HIERARCHY
ROOT Hips
{
  OFFSET 279.157 85.6768 304.565
  CHANNELS 6 Xposition Yposition Zposition Zrotation Xrotation Yrotation
  JOINT LeftUpLeg
  {
    OFFSET 8.64259 1.95398 -2.38835
    CHANNELS 3 Zrotation Xrotation Yrotation
    JOINT LeftLeg
    {
      OFFSET 43.7702 0 0
      CHANNELS 3 Zrotation Xrotation Yrotation
      JOINT LeftFoot
      {
        OFFSET 40.6238 0 0
        CHANNELS 3 Zrotation Xrotation Yrotation
        JOINT LeftToeBase
        {
          OFFSET 12.7242 0 0
          CHANNELS 3 Zrotation Xrotation Yrotation
          End Site
          {
            OFFSET 0 0 0
          }
        }
      }
    }
  }
  JOINT RightUpLeg
  {
    OFFSET -8.2249 1.95398 -2.59336
    CHANNELS 3 Zrotation Xrotation Yrotation
    JOINT RightLeg
    {
      OFFSET 43.5653 0 0
      CHANNELS 3 Zrotation Xrotation Yrotation
      JOINT RightFoot
      {
        OFFSET 40.6238 0 0
        CHANNELS 3 Zrotation Xrotation Yrotation
        JOINT RightToeBase
        {
          OFFSET 12.7242 0 0
          CHANNELS 3 Zrotation Xrotation Yrotation
          End Site
          {
            OFFSET 0 0 0
          }
        }
      }
    }
  }
  JOINT Spine
  {
    OFFSET 0.165834 0.87714 6.61349
    CHANNELS 3 Zrotation Xrotation Yrotation
    JOINT Spine1
    {
      OFFSET 7.38963 1.71661e-005 0
      CHANNELS 3 Zrotation Xrotation Yrotation
      JOINT Spine2
      {
        OFFSET 11.9445 1.14441e-005 0
        CHANNELS 3 Zrotation Xrotation Yrotation
        JOINT Spine3
        {
          OFFSET 14.7254 4.19617e-005 0
          CHANNELS 3 Zrotation Xrotation Yrotation
          JOINT Spine4
          {
            OFFSET 10.9679 0 0
            CHANNELS 3 Zrotation Xrotation Yrotation
            JOINT RightShoulder
            {
              OFFSET 2.46616 -1.6653 3.69651
              CHANNELS 3 Zrotation Xrotation Yrotation
              JOINT RightArm
              {
                OFFSET 13.0012 0 0
                CHANNELS 3 Zrotation Xrotation Yrotation
                JOINT RightForeArm
                {
                  OFFSET 28.7848 1.52588e-005 0
                  CHANNELS 3 Zrotation Xrotation Yrotation
                  JOINT RightHand
                  {
                    OFFSET 26.5688 1.52588e-005 0
                    CHANNELS 3 Zrotation Xrotation Yrotation
                    End Site
                    {
                      OFFSET 0 0 0
                    }
                  }
                }
              }
            }
            JOINT LeftShoulder
            {
              OFFSET 2.38034 -1.29275 -3.7523
              CHANNELS 3 Zrotation Xrotation Yrotation
              JOINT LeftArm
              {
                OFFSET 16.3182 6.10351e-005 0
                CHANNELS 3 Zrotation Xrotation Yrotation
                JOINT LeftForeArm
                {
                  OFFSET 27.0901 0 0
                  CHANNELS 3 Zrotation Xrotation Yrotation
                  JOINT LeftHand
                  {
                    OFFSET 24.5451 1.52588e-005 0
                    CHANNELS 3 Zrotation Xrotation Yrotation
                    End Site
                    {
                      OFFSET 0 0 0
                    }
                  }
                }
              }
            }
            JOINT Neck
            {
              OFFSET 5.0226 -0.0266342 0
              CHANNELS 3 Zrotation Xrotation Yrotation
              JOINT Head
              {
                OFFSET 6.69364 2.86102e-005 0
                CHANNELS 3 Zrotation Xrotation Yrotation
                End Site
                {
                  OFFSET 0 0 0
                }
              }
            }
          }
        }
      }
    }
  }
}
MOTION
Frames:	16
Frame Time:	0.0416667
136.772 15.4105 116.545 -7.71341 -1.94985 -90.8068 -171.249 2.18704 94.6209 -23.4172 8.63315 -1.44215 57.8411 -1.5947 -2.14666 43.8963 4.12967 48.2028 169.7 -0.515193 83.8503 -25.5617 -15.5887 0.736859 70.3525 -5.73651 0.134748 36.1869 -2.85715 5.93826 -0.232267 6.28763 -90.0313 14.2986 -0.475505 0.00342364 2.62777 -0.47488 0.0243121 -19.908 -0.454535 -0.139658 0.104631 -0.454537 -0.139667 97.0361 5.93205 -107.436 -12.0369 72.7697 -11.8278 -24.4059 -26.5054 -101.406 -25.5354 -1.62805 -4.41427 -84.0562 -11.1575 79.8969 -10.2443 -67.067 -48.3963 33.0315 4.8259 -96.6306 1.62188 -0.700934 -21.7407 44.3293 0.245835 -7.56531 -19.5835 2.39049 11.9542 
136.715 14.882 116.838 -9.74748 -4.04844 -89.3589 -170.832 1.11718 96.4514 -25.073 11.3741 -0.684944 58.9128 -1.21621 -1.958 43.7811 3.90429 48.9078 169.202 -4.74848 84.8141 -22.6371 -13.9608 1.70787 68.514 -5.06535 -0.806688 38.3475 -3.55856 8.54287 -0.480966 6.5506 -90.1764 13.7719 -1.03937 -0.215105 2.10138 -1.04783 -0.169152 -20.4365 -0.926662 -0.517544 -0.423808 -0.926659 -0.517541 97.3843 7.84819 -107.811 -11.3625 77.8297 -9.20238 -41.3015 -29.1189 -113.645 -37.3593 -0.795534 -12.8784 -83.8674 -10.7216 80.2269 -9.6357 -66.3141 -47.3895 31.1894 4.79708 -96.3897 4.17135 -0.974716 -19.6972 42.6169 3.28742 -0.400159 -13.4007 3.3395 -0.0974254 
136.711 14.9662 116.817 -9.41545 -3.86423 -89.5537 -170.918 1.4037 96.2346 -24.9272 11.0237 -0.764054 58.8999 -1.2011 -1.95581 43.4649 3.43829 49.4432 169.27 -4.14397 84.6492 -22.9681 -14.1318 1.62341 68.4896 -4.99208 -0.650946 36.4808 -3.09167 8.86324 -0.414642 6.49233 -90.0717 13.8897 -0.85693 -0.0290316 2.21904 -0.857366 0.00871304 -20.3182 -0.808591 -0.285257 -0.305548 -0.808575 -0.285236 96.751 6.07877 -108.941 -20.1085 76.8595 -1.08459 -37.7228 -28.7514 -110.267 -34.8548 -0.314133 -14.0477 -83.6677 -7.34842 79.4865 -13.6243 -66.1241 -47.9475 32.5442 4.77073 -97.4317 3.75625 -0.8482 -18.4078 42.0407 2.06363 -3.74633 -13.1144 3.54838 3.09439 
136.731 14.9731 116.831 -9.45749 -3.79701 -89.7557 -171.006 1.24735 96.0022 -24.8169 10.67 -0.772729 58.912 -1.1915 -2.19195 43.2965 3.1133 50.2848 169.13 -4.00614 84.3955 -23.219 -14.3518 1.61292 68.6414 -5.07866 -0.767981 38.0171 -3.47943 8.76868 -0.420345 6.48819 -89.9966 13.8983 -0.831585 0.118311 2.22763 -0.825568 0.154806 -20.3096 -0.828698 -0.137112 -0.296979 -0.828694 -0.13709 96.4142 5.12676 -109.456 -22.2734 76.674 0.621782 -37.8245 -28.5218 -110.443 -35.0538 -0.37687 -13.7856 -83.8015 -6.25415 78.6562 -14.0606 -66.8239 -47.1951 32.8753 4.91486 -97.7559 3.14254 -0.759353 -18.1985 40.8724 1.31417 -5.42817 -12.3357 3.56371 4.21234 
136.703 14.9816 116.83 -9.64873 -3.77802 -89.764 -170.95 1.16734 96.0269 -25.0972 10.8461 -0.786592 58.6038 -1.42733 -1.86656 43.0078 2.73709 50.3 169.078 -4.33469 84.3757 -22.9283 -14.3708 1.60304 68.5814 -5.09986 -0.816843 38.1056 -3.49311 8.54 -0.437802 6.52701 -89.9951 13.8208 -0.865569 0.124902 2.15013 -0.859227 0.162879 -20.3873 -0.863075 -0.141036 -0.374662 -0.863099 -0.141027 96.5738 6.27964 -109.998 -24.5289 77.579 4.20938 -39.2713 -28.8122 -112.121 -35.3222 -0.735775 -12.7498 -83.8506 -6.58356 78.6496 -12.898 -67.1958 -46.6595 32.7934 4.97109 -97.5398 3.1855 -0.774072 -18.3821 41.7144 1.54308 -5.26169 -13.1811 3.70839 4.1902 
136.723 14.9924 116.828 -9.55603 -3.70155 -89.7328 -170.978 1.33455 96.0451 -25.1712 10.8453 -0.781759 58.7927 -1.32069 -1.95941 42.6057 1.88874 52.4592 169.108 -4.25628 84.424 -22.8711 -14.4677 1.59154 68.5417 -5.11847 -0.922675 38.4614 -3.57018 8.04237 -0.450314 6.47198 -89.9161 13.9313 -0.851626 0.282715 2.26055 -0.838365 0.319928 -20.2768 -0.897225 0.0136875 -0.264173 -0.897208 0.0136965 95.7718 3.44718 -110.492 -26.0928 76.3367 3.50893 -37.7832 -28.477 -110.215 -35.1165 -0.319088 -13.971 -83.7105 -5.29683 78.4983 -13.3571 -66.9186 -45.7787 32.8952 4.92039 -98.0819 3.51209 -0.811169 -18.32 39.3505 0.644707 -7.30612 -11.0972 3.6806 5.87908 
136.749 15.0021 116.829 -9.61398 -3.76314 -89.7278 -170.951 1.19608 96.0766 -24.9774 10.9913 -0.771023 58.869 -1.21677 -1.93607 42.3682 1.27045 54.1952 169.114 -4.26912 84.4301 -22.999 -14.4107 1.60268 68.7181 -5.17769 -0.817764 36.3219 -3.03791 8.61941 -0.483134 6.47901 -89.9057 13.9175 -0.911578 0.311455 2.24684 -0.896993 0.351268 -20.2909 -0.963031 0.0230688 -0.278244 -0.963044 0.0230601 95.684 3.70748 -111.145 -27.6702 76.4373 5.37278 -38.1599 -28.5232 -110.586 -34.6619 -0.378323 -13.9345 -83.3727 -4.93655 79.3656 -15.3573 -66.4666 -47.2678 32.9458 4.84709 -98.3347 3.03338 -0.746666 -18.2026 39.6491 0.79558 -7.40674 -11.3716 3.87588 5.89812 
136.773 15.0007 116.818 -9.51519 -3.76381 -89.6456 -170.929 1.23288 96.1682 -24.7281 11.0178 -0.769366 58.461 -1.41634 -1.79788 42.61 1.37166 55.7071 169.17 -4.09213 84.5248 -23.1916 -14.3423 1.64022 68.7607 -5.19209 -0.924642 37.5695 -3.35604 8.56676 -0.503686 6.51607 -89.9323 13.8434 -0.965465 0.264353 2.17273 -0.952901 0.306596 -20.3653 -1.00026 -0.0380567 -0.352682 -1.00029 -0.0380669 95.9014 4.898 -111.499 -29.7226 77.1747 8.29864 -38.1166 -28.9876 -110.918 -35.2059 -0.42574 -13.6764 -83.4373 -5.69605 79.4961 -13.7548 -67.0851 -46.8902 32.5517 4.9391 -97.8828 3.4347 -0.801385 -18.3153 41.4926 1.10109 -6.87997 -12.9874 4.01295 5.19664 
136.667 14.9917 116.834 -9.64231 -3.79601 -89.7611 -170.974 1.36821 95.975 -25.6349 10.9103 -0.780118 59.2501 -1.05769 -1.43227 40.1935 -2.27023 56.3386 169.06 -4.48007 84.3921 -22.5998 -14.3319 1.58542 68.4246 -5.06712 -0.79135 38.9064 -3.69698 8.47977 -0.543717 6.47727 -89.8515 13.9217 -1.00524 0.432673 2.25102 -0.985177 0.476518 -20.2872 -1.08877 0.110536 -0.274516 -1.08879 0.110529 95.3744 2.44943 -111.14 -25.4868 76.2612 2.10414 -38.2108 -28.3531 -110.07 -35.2125 -0.396154 -13.74 -83.4704 -4.49252 78.8634 -11.8437 -67.2172 -43.958 32.6034 4.86532 -98.1832 2.92382 -0.733359 -18.2013 39.0915 0.611551 -8.30566 -10.8883 4.12185 5.94143 
136.746 14.9893 116.832 -9.57107 -3.72175 -89.6674 -170.934 1.23111 96.1207 -24.974 10.9555 -0.781385 58.6343 -1.36798 -1.86119 41.3431 -1.18147 59.1081 169.154 -4.22897 84.48 -23.0165 -14.3768 1.60653 68.6704 -5.1532 -0.881461 37.7678 -3.4114 8.6657 -0.562411 6.48987 -89.8618 13.8967 -1.04741 0.417298 2.2261 -1.02802 0.463005 -20.3124 -1.12441 0.083178 -0.299748 -1.1244 0.0831844 95.2794 3.93892 -113.122 -33.9946 76.7739 12.191 -38.2063 -28.9868 -110.766 -35.1971 -0.424277 -13.7097 -83.3687 -4.70723 79.2698 -11.6922 -67.3245 -44.0974 32.255 4.95566 -97.9796 3.48457 -0.80439 -18.2563 39.4335 0.739552 -8.41781 -11.4888 4.2468 6.47346 
136.734 14.9689 116.82 -9.58138 -3.64821 -89.6605 -170.873 1.08501 96.1646 -24.6745 10.7945 -0.817392 58.6027 -1.34726 -1.98132 41.0764 -2.14879 61.3557 169.223 -4.1279 84.4871 -23.2283 -14.3601 1.55271 68.6176 -5.04321 -0.672378 36.7221 -3.1473 8.7399 -0.558009 6.54757 -89.8944 13.781 -1.05493 0.35129 2.11041 -1.03845 0.397386 -20.4282 -1.11173 0.0179898 -0.415504 -1.11173 0.0179636 95.6608 4.49067 -112.107 -30.5467 77.611 8.69229 -38.0178 -29.165 -110.527 -35.1528 -0.375339 -13.8685 -82.9508 -5.15229 80.7558 -15.0936 -66.9098 -47.9392 32.254 4.91472 -98.1004 3.24283 -0.769459 -18.1501 41.5239 1.12788 -7.68389 -13.1058 4.40673 5.56316 
136.732 14.9636 116.82 -9.52661 -3.71824 -89.6809 -170.907 1.24672 96.1214 -24.9338 10.9337 -0.824051 58.8454 -1.24167 -1.87455 40.3133 -3.86622 63.2104 169.171 -4.22214 84.4764 -22.9476 -14.3142 1.5882 68.564 -5.06758 -0.737126 37.4937 -3.33665 8.55963 -0.575462 6.5282 -89.8684 13.82 -1.07668 0.406946 2.14938 -1.05773 0.453942 -20.3893 -1.1492 0.064532 -0.37668 -1.1492 0.0645081 95.3393 3.88327 -112.807 -33.7863 77.264 11.5514 -37.9748 -28.9995 -110.695 -35.1593 -0.410678 -13.7118 -83.2022 -5.13775 79.9782 -12.3958 -67.4085 -45.5422 32.0643 4.96663 -97.8524 3.30341 -0.776612 -18.1444 40.9484 1.13593 -7.74465 -12.4832 4.4852 5.00965 
136.741 14.9793 116.809 -9.44297 -3.8126 -89.6185 -170.958 1.34 96.1591 -24.8919 10.8946 -0.757849 58.734 -1.32076 -1.98258 40.1846 -4.53866 64.7535 169.162 -4.19392 84.5841 -22.9583 -14.2679 1.67817 68.8972 -5.3204 -0.972281 38.1502 -3.48746 8.06832 -0.590092 6.49756 -89.8688 13.8814 -1.10574 0.411041 2.21085 -1.08654 0.459316 -20.3281 -1.17815 0.0596548 -0.315394 -1.17814 0.0596677 95.4556 3.28125 -111.662 -26.0373 76.5667 3.11442 -37.9561 -28.5267 -109.778 -35.405 -0.455531 -13.4209 -83.111 -5.27043 80.3122 -12.7595 -66.7048 -46.0355 32.5022 4.89092 -97.8652 3.71551 -0.822305 -18.0657 40.5687 1.02425 -7.96615 -12.4761 4.40888 5.59473 
136.704 14.9913 116.83 -10.0193 -3.52586 -89.7709 -171.035 0.521372 96.1292 -24.4008 11.312 -0.572513 57.95 -1.82158 -2.10212 40.7021 -4.27586 66.9169 168.942 -4.75826 84.3442 -22.9264 -13.8895 1.70153 69.1602 -5.45283 -0.801061 35.7173 -2.86716 8.34936 -0.550532 6.50061 -89.8297 13.8752 -1.00827 0.476076 2.20453 -0.986354 0.520004 -20.3337 -1.10475 0.151012 -0.320996 -1.10474 0.151007 94.8084 0.920069 -111.853 -26.293 74.3627 0.772102 -38.2723 -28.2138 -108.468 -36.3481 -0.504724 -13.0018 -83.0216 -4.99416 80.466 -14.0156 -65.2539 -46.7834 34.0644 4.85868 -97.9247 4.54621 -0.902696 -17.7436 38.7779 0.772703 -8.89415 -11.4785 4.43497 6.77507 
136.681 15.0288 116.948 -9.82119 -2.96618 -89.9364 -171.8 0.548411 95.9291 -24.2855 15.0978 0.287019 57.5465 -2.19527 -3.11286 41.4532 -4.55657 72.82 168.51 -4.44784 84.138 -22.8967 -12.7305 2.09009 68.9855 -5.37788 -0.715194 35.5838 -2.83947 8.47611 -0.501814 6.49719 -89.8739 13.8815 -0.933186 0.377624 2.21085 -0.915671 0.418312 -20.327 -1.00355 0.0796729 -0.314302 -1.00354 0.0796638 96.3711 3.35305 -107.892 -3.89658 73.823 -19.0177 -39.3916 -27.6213 -108.432 -37.0996 -0.626251 -12.7243 -82.6728 -4.74686 81.4374 -15.3899 -64.374 -47.7573 34.3983 4.80975 -97.6932 5.46084 -0.957741 -16.9706 39.999 1.18527 -7.06215 -12.2758 4.07977 5.58972 
136.698 15.1676 117.204 -9.66151 -2.02251 -90.4892 -173.06 1.21436 95.9082 -25.6534 23.8347 2.03455 57.3665 -2.51765 -5.03723 42.1946 -7.09375 83.0088 166.966 -3.6353 83.7022 -23.9891 -7.96154 3.74516 70.1208 -5.81982 0.0173174 34.891 -2.52591 6.41691 -0.471645 6.48912 -89.8746 13.8973 -0.873705 0.36848 2.22664 -0.856625 0.406574 -20.3108 -0.944048 0.088855 -0.298184 -0.944065 0.0888166 96.8882 4.20578 -106.427 5.47605 72.4228 -27.1718 -38.9538 -26.8969 -106 -35.9146 -0.531471 -13.1577 -82.2933 -4.1546 82.4263 -14.62 -64.1691 -46.6764 35.4111 4.22217 -99.3616 5.2482 -0.773767 -14.6487 40.0519 1.45547 -5.50228 -12.5333 3.62508 4.87546 
